<svg xmlns="http://www.w3.org/2000/svg" id="b" data-name="Layer 2" viewBox="0 0 880 880"><g id="c" data-name="Layer 1"><path d="M523.92 255.05c16.86-12.25 34.74-23.64 53.32-33.16 8.06-4.13 27.88-14.47 35.63-16.37 5.11-1.25 10.64-.95 14.96 2.1 9.11 6.44 30.13 56.41 34.82 69.18 3.36 9.15 6.39 18.73 8.27 28.23 10.57-.96 21.09-3.62 31.61-4.86 11.36-1.33 25.53-2.88 36.83-3.17 12.06-.3 21.74-1.08 23.55 13.54 1.85 14.92 1 44.39-.02 59.99-3.19 48.81-22.51 106.21-48.57 147.43-14.54 23-32.84 42.41-51.42 62.07 37.53 12.04 74.8 30.66 103.52 57.99 9.07 8.63 18.44 18.47 5.5 29.55-7.09 6.07-25.16 15.56-34.01 19.99-62.21 31.15-134.95 31.08-201.03 13-33.28-9.11-64.59-23.43-97.5-33.56-38.25 12.87-75.18 29.29-114.66 38.36-67.91 15.61-139.7 7.47-200.12-27.52-10.16-5.88-27.9-13.34-21.54-28.14 2.78-6.47 28.99-28.18 35.91-33.09 22.62-16.07 50.53-28.35 76.93-36.57.41-1.52-.4-1.66-.98-2.51-4.94-7.15-17.48-17.37-23.98-25.02-52.89-62.16-83.63-160.06-73.46-241.62 2.01-16.09 12.28-14.42 25.97-13.89 7.66.29 17.19 1.28 24.95 2.05 13.87 1.38 27.66 4.34 41.5 6 .22-3.7 1.39-7.49 2.51-11 7.01-22 17.41-47.66 27.62-68.38 2.56-5.19 10.09-19.17 15.59-20.41 10.19-2.31 28.09 6.47 37.65 10.93 22.17 10.36 42.62 24.21 62.14 38.84 13.11-18.37 26.08-36.94 41.47-53.51 7.77-8.37 18.61-19.58 27.55-26.45 7.03-5.39 13.06-10.69 22.48-6.54 7.83 3.45 31.23 27.53 38.02 34.98 14.16 15.56 27.64 33.83 38.99 51.53Zm-55.6-19.42c-6.92-8.1-14.03-16.42-21.39-24.11-1.23-1.28-6.7-7.39-8.01-6.47-.07 1.2-.65 2.17-1.46 3.02-70.72 74.31-124.97 170.47-100.09 277.01 13.4 57.36 54.11 102.89 102.04 134.65 52.77-32.62 92.78-82.72 105.2-144.46 17.81-88.52-19.96-173.68-76.29-239.63ZM312.86 346.02c7.02-21.27 16.24-41.68 26.94-61.33-.48-2.92-30-21.7-34.6-24.45-4.3-2.56-34.32-19.49-36.22-18.13-11.77 22.83-20.93 46.85-26.63 71.98l70.51 31.92Zm299.03-102.97c-24.98 10.85-48.21 25.23-70.93 40.08l28.45 63.9c21.75-14.23 46.15-23.15 70.08-32.94-6.34-24.75-16.42-48.18-27.59-71.04ZM387.9 623.04c-32.03-28.75-59.68-63.07-74.46-104.03-13.9-38.53-16.64-77.86-12.52-118.44.43-4.24 4.06-17.47 2.07-20.09-.59-.78-8.72-5.62-10.42-6.6-14.84-8.6-33.78-17.98-49.7-24.3-30.02-11.9-61.89-16.04-93.96-18.53-.73 33.13 1.51 68.03 11.95 99.54 8.22 24.81 22.2 52.59 36.62 74.38 42.73 64.51 112.67 109.98 190.41 118.07Zm344.01-292c-47.38-.94-95.72 16.05-136.68 38.83-2.72 1.51-16.36 9.18-17.41 10.59-.7.94-1.09 1.82-.97 3.03 9.95 55.77 2.18 115.51-24.43 165.58-15.22 28.64-35.72 52.21-59.52 73.97 78.52-8.6 145.51-52.68 188.82-117.67 35.09-52.67 53-110.33 50.19-174.32ZM371.9 654.05c-37.72-6.76-74.47-21.3-108.02-39.48-3.23-1.75-12.17-8.47-14.46-8.61-37.13 7.7-72.08 24.38-102.53 46.59 50.06 28.27 112.53 33.89 168.2 21.19 16.25-3.71 40.33-10.82 55.4-17.59 1.19-.53 1.81.47 1.41-2.09Zm135 1.98c14.86 3.57 28.82 9.96 43.56 13.95 44.76 12.13 96.81 13.88 141.44.55a157.7 157.7 0 0 0 40.98-19c-22.61-17.46-48.44-31.03-75.98-39-6.71-1.94-24-7.01-29.96-4.95-1.86.64-4.29 3.48-6.35 4.65-26.66 15.14-54.91 27.17-84.48 35.52-8.56 2.42-18.52 3.68-26.62 6.38-1.1.37-2.42.3-2.6 1.89Z" style="fill:#2c6e6f"/><path d="M0 0h880v880H0Z" style="fill:none"/></g></svg>